<svg xmlns="http://www.w3.org/2000/svg" viewBox="0 0 1915.23 430.2">
    <defs>
        <style>.cls-1{fill:#00aeef;}</style>
    </defs>
    <title>icon+text</title>
    <g id="Layer_2" data-name="Layer 2">
        <g id="Layer_1-2" data-name="Layer 1">
            <path class="cls-1" d="M1915.23,323.55l-21.66-.05h-29.64c-1.16-.73-1.2-1.79-1.49-2.7-8.19-26-16.63-52-24.07-78.26-2.5-8.81-5.6-17.46-8.45-26.18q-4.58-14-9.18-28a14.33,14.33,0,0,0-1.3-3.18,8.23,8.23,0,0,0-1.45,3.15c-3.49,10.11-6.88,20.26-10.49,30.33-6.93,19.33-12.71,39-19,58.56q-6.95,21.5-14,43c-.33,1-.75,2-1.1,3-2.6.4-48.2.5-52.28.14-.61-.85-.08-1.64.19-2.42q4.56-13.15,9.15-26.29l64-183.74c.47-1.33,1-2.66,1.5-4.13a12.82,12.82,0,0,1,1.86-.27q21.83,0,43.65,0a12,12,0,0,1,1.25.12c1,.92,1.12,2.18,1.49,3.29q10.85,32.29,21.63,64.61,23.82,71.28,47.67,142.56c.59,1.74.7,3.62,1.71,5.21Z" />
            <path class="cls-1" d="M370.41,429.88c-.83-.12-1.67-.24-2.5-.34-.65-.07-1.3-.09-1.94-.17a139.34,139.34,0,0,1-60.68-23.23,154.19,154.19,0,0,1-23.82-19.5,127.1,127.1,0,0,1-12.64-15.06,11.23,11.23,0,0,1-.79-1.4c0-.06.07-.18.17-.42,1,.65,2,1.28,2.94,1.93a201,201,0,0,0,61.68,27.54,140.33,140.33,0,0,0,43.9,4.26c22.89-1.51,43.61-8.79,61.36-23.65a104.52,104.52,0,0,0,28.3-37.31A135.24,135.24,0,0,0,472.76,324a166.85,166.85,0,0,0,5.7-27.89c.22-1.95.27-3.92.44-5.88.08-.95.27-1.89.52-3.59.54,1.41.88,2.08,1.06,2.78A124.5,124.5,0,0,1,484,310a127.31,127.31,0,0,1,.08,20.94,113.33,113.33,0,0,1-7.74,33.38,103.18,103.18,0,0,1-76.79,63.43c-2.5.48-5,.84-7.55,1.2-2.35.34-4.69.86-7.05,1.06s-4.88.18-7.32.15c-1.63,0-3.29,0-4.91-.06C372,430.07,371.18,430,370.41,429.88Z" />
            <path class="cls-1" d="M405.14.08c3.34.08,6.67.23,10,.64a109.56,109.56,0,0,1,13.67,2.64c4.5,1.16,8.93,2.56,13.3,4.13,2.18.78,4.34,1.59,6.49,2.45A117.67,117.67,0,0,1,467,19.22c12.16,7.46,23.48,16,33.24,26.47a128.46,128.46,0,0,1,10.35,12.69,12.88,12.88,0,0,1,.72,1.24c-1.1.35-1.66-.49-2.3-.92a206.83,206.83,0,0,0-44.61-22.63,168.65,168.65,0,0,0-34.9-8.75,132.32,132.32,0,0,0-26.84-.95A112.11,112.11,0,0,0,368,34,100.28,100.28,0,0,0,324.9,67.27,110,110,0,0,0,314,85.13a113.12,113.12,0,0,0-5.9,16,175.53,175.53,0,0,0-6.41,27c-.43,2.81-.67,5.64-1,8.46a34.2,34.2,0,0,1-.9,5.94,9.27,9.27,0,0,1-.82-1.79c-.93-4.27-2-8.52-2.66-12.82a121.32,121.32,0,0,1-1.43-21.88c.37-14.9,3.06-29.35,9.15-43C318.13,31.53,342,11.41,375.61,3A98.26,98.26,0,0,1,389.83.47,102,102,0,0,1,401,0Z" />
            <path class="cls-1" d="M304.12,35.18c-1.12,1.3-1.95,2.28-2.79,3.24a153.42,153.42,0,0,0-23.78,35.21,129.87,129.87,0,0,0-11.47,35.75,101.63,101.63,0,0,0,5.33,52.54A120.16,120.16,0,0,0,285.92,189a171.46,171.46,0,0,0,34.24,36,290,290,0,0,0,29.33,21c10.31,6.27,19.62,13.91,28.81,21.67,5.26,4.44,10.43,9,15.34,13.83a90.43,90.43,0,0,1,18.29,25.83,57.16,57.16,0,0,1,5.26,17.49,33.53,33.53,0,0,1-4,20.87,47.87,47.87,0,0,1-14.76,16,64.7,64.7,0,0,1-21.46,9.54,105.07,105.07,0,0,1-19.05,3.23,78,78,0,0,1-22.47-2.08,121.88,121.88,0,0,1-14.73-4.46,66.18,66.18,0,0,1-23.93-15.14c-1.57-1.52-3.13-3.05-4.65-4.62a3.24,3.24,0,0,0-2.61-1.11c-.87.05-1.75,0-2.63,0h-90.6A32.64,32.64,0,0,1,193,347a7.84,7.84,0,0,1-7.09-6.66,7.73,7.73,0,0,1,5.19-8.5,8.94,8.94,0,0,1,2.24-.41c1-.07,2,0,2.95,0l130.65,0,24.95,0c.77,0,1.54,0,2.3,0a7.81,7.81,0,0,0,.54-15.58,31,31,0,0,0-3.61-.08H280.2a65.45,65.45,0,0,1-11.78-.68,41.18,41.18,0,0,1-10.61-3.28,26.88,26.88,0,0,1-7.47-5.26c-5.08-5.12-10.25-10.16-15.3-15.32a5.87,5.87,0,0,0-4.59-1.93c-8,.09-16,0-24,0q-34.78,0-69.59,0a18,18,0,0,1-4.22-.38,7.62,7.62,0,0,1-5.77-6.79,7.76,7.76,0,0,1,4.19-7.57,10.21,10.21,0,0,1,3.13-.83,25.62,25.62,0,0,1,3.28-.05H269.14a30.25,30.25,0,0,0,3.93-.1A7.81,7.81,0,0,0,273,258c-1-.09-2,0-2.95,0q-25.93,0-51.87,0a57.65,57.65,0,0,1-9.82-.53A26.15,26.15,0,0,1,193.73,250c-3.75-3.82-7.56-7.59-11.37-11.36a40.42,40.42,0,0,1-7.21-9.3,11.58,11.58,0,0,0-.76-1.11,11,11,0,0,0-3.88-.26H55c-1.2,0-2.4,0-3.61,0a7.76,7.76,0,0,1-1-15.38,21.34,21.34,0,0,1,3.92-.24q17.4,0,34.8,0l92.57,0c12.37,0,24.73.06,37.09.08a27.11,27.11,0,0,0,3.61-.15,7.71,7.71,0,0,0-.17-15.3,29.69,29.69,0,0,0-3.27-.11c-9.63,0-19.26,0-28.89,0-2,0-3.93-.15-5.89-.32a6.68,6.68,0,0,1-2.19-.61,1.88,1.88,0,0,1-.85-3,13.46,13.46,0,0,1,1.86-2.27c2.14-2.19,4.33-4.33,6.48-6.51.52-.52,1-1.1,1.4-1.57-.26-.74-.75-.65-1.15-.66-1.1,0-2.19,0-3.29,0H104.36a27.12,27.12,0,0,1-3.61-.09,7.76,7.76,0,0,1-6.84-6.89,7.64,7.64,0,0,1,5.14-8.22,9.89,9.89,0,0,1,2.56-.45c1.19-.07,2.4,0,3.6,0H242.76a28.94,28.94,0,0,0,3,0,7.81,7.81,0,0,0,.21-15.54,20.84,20.84,0,0,0-2.62-.06c-4.27,0-8.54,0-12.81,0a6.36,6.36,0,0,1-3.5-.66,1.5,1.5,0,0,1-.63-2.21,15,15,0,0,1,1.87-2.26c4.68-4.59,9.35-9.21,14.12-13.71a6.62,6.62,0,0,0,2.3-4.79,122.31,122.31,0,0,1,2.95-20.41c4.8-20.75,14.44-38.8,29.91-53.61A95.34,95.34,0,0,1,300.4,36.5,8.38,8.38,0,0,1,304.12,35.18Z" />
            <path class="cls-1" d="M475.65,394.2c.78-.9,1.54-1.81,2.33-2.7a151,151,0,0,0,27.29-43A123.64,123.64,0,0,0,514,314.73,101.52,101.52,0,0,0,508,268a122.29,122.29,0,0,0-15.8-29,172.88,172.88,0,0,0-33.9-35,281.65,281.65,0,0,0-28.57-20.33C420.9,178.44,412.89,172,405,165.44q-8.08-6.67-15.85-13.75a94.6,94.6,0,0,1-20.89-27.54,58.53,58.53,0,0,1-6-18.62,33.68,33.68,0,0,1,3.29-20,46.42,46.42,0,0,1,14-16.27A61.74,61.74,0,0,1,401,59c8.68-2.34,17.47-3.93,26.53-3.7a92.22,92.22,0,0,1,24.16,4.2l1.87.59a74.06,74.06,0,0,1,31.52,19.3c26.53,26.67,53.23,53.15,79.86,79.71q15.8,15.75,31.53,31.55a56.76,56.76,0,0,1,4.81,5.37A31.06,31.06,0,0,1,608,215.8a28.22,28.22,0,0,1-3.11,12,42.33,42.33,0,0,1-8.31,11.3Q586.3,249.4,576,259.73q-17.18,17.16-34.35,34.3a67.57,67.57,0,0,1-5,4.73,5.13,5.13,0,0,0-1.92,3.94c-.22,3.05-.49,6.1-.89,9.13-2.81,21-10.27,40.12-23.92,56.57a97.42,97.42,0,0,1-30.65,24.79c-1,.53-2.13,1-3.2,1.51Z" />
            <path class="cls-1" d="M1700.39,211.09a7.4,7.4,0,0,0,.69.8c8.47,7.56,13.38,17.12,16,28a85.42,85.42,0,0,1,1.58,26.39,74.89,74.89,0,0,1-3.65,18.93,72.27,72.27,0,0,1-3.61,8.78c-6.52,12.88-17,21.14-30.59,25.59a86.71,86.71,0,0,1-23.23,3.82c-1.42.07-2.84.06-4.26.06h-85a9.57,9.57,0,0,1-3.65-.31c-.1-.68-.24-1.3-.27-1.93-.43-12.07-.16-211.4.29-214.41,1.08-.7,2.32-.38,3.49-.38q16.25,0,32.5,0c17.61,0,35.23,0,52.85,0a78,78,0,0,1,22.69,3c19.32,5.79,31.93,18.42,37.54,37.76a74.74,74.74,0,0,1,0,41.41,45.19,45.19,0,0,1-12.44,21.24,9.13,9.13,0,0,0-.65.73A3.76,3.76,0,0,0,1700.39,211.09Zm-87.19,66.65c1,.07,1.86.18,2.72.18q18.36,0,36.74,0a35,35,0,0,0,4.58-.27c5.45-.69,9.33-3.49,11.3-8.7a26.12,26.12,0,0,0,1.14-3.75,45.74,45.74,0,0,0,.49-15,25,25,0,0,0-3.13-9.93,14.48,14.48,0,0,0-9.06-7.06,21.58,21.58,0,0,0-5.18-.67c-12.58,0-25.15,0-37.73,0-.62,0-1.24.14-2,.22-.08.92-.2,1.66-.21,2.41C1612.55,250.28,1612.71,274.24,1613.2,277.74Zm.08-90c.81.05,1.66.16,2.52.16q18,0,36.06,0a30.09,30.09,0,0,0,3.92-.17c5.87-.76,9.94-3.79,11.59-9.59a30.68,30.68,0,0,0,0-16.81c-1.39-5-4.85-7.94-9.9-8.89a36.41,36.41,0,0,0-6.51-.59c-11.48,0-23,0-34.42,0-1.08,0-2.16,0-3.37.08a21.27,21.27,0,0,0-.33,2.35C1612.51,166.52,1612.72,185,1613.28,187.78Z" />
            <path class="cls-1" d="M1195,106.44h3.67q45.78,0,91.56,0a72.76,72.76,0,0,1,19.16,2.32c16.18,4.35,27.48,14.33,34,29.7a78.49,78.49,0,0,1,5.28,19.55,134.31,134.31,0,0,1,.53,33.34,83.25,83.25,0,0,1-5.71,23.81,52.36,52.36,0,0,1-6.82,11.91,40.87,40.87,0,0,1-13.45,11.3c-.86.46-1.7.94-2.62,1.45a16.11,16.11,0,0,0,1.59,3.65q18.7,38.09,37.43,76.16a8.86,8.86,0,0,1,1.39,3.57c-2.71.38-47.78.51-53.33.16-1-.84-1.29-2.15-1.83-3.31q-16.65-35.61-33.28-71.24c-.55-1.19-1.12-2.37-1.78-3.76-8.92-1-17.93-1.75-27.12-2.57a15,15,0,0,0-.38,2c-.06,1,0,2,0,2.94q0,35.89,0,71.79c0,1.29,0,2.59-.07,4a15.68,15.68,0,0,1-2.1.32h-44.3c-.43,0-.86-.07-1.48-.13a14.68,14.68,0,0,1-.37-1.82c-.06-.87,0-1.74,0-2.62V111.11C1194.88,109.7,1194.92,108.3,1195,106.44Zm48.61,46c-.09.81-.18,1.24-.18,1.66q0,22.09.08,44.19a.68.68,0,0,0,.07.32,4.08,4.08,0,0,0,.45.45c.71,0,1.67.15,2.62.15q20.65,0,41.3,0c1.64,0,3.28-.09,4.91-.22a6.59,6.59,0,0,0,6.13-4.63,32.9,32.9,0,0,0,1.7-7.31,84.77,84.77,0,0,0,0-20.57,26.26,26.26,0,0,0-2.54-9.09,8.76,8.76,0,0,0-7.84-5c-.77,0-1.53-.05-2.29-.05h-41.3C1245.72,152.25,1244.76,152.34,1243.56,152.4Z" />
            <path class="cls-1" d="M995.08,216.73c.35-8.29.5-16.6,1.08-24.88.94-13.21,2.9-26.27,7.07-38.91a89.28,89.28,0,0,1,6.16-14.45,58.29,58.29,0,0,1,36.24-29.25,101.45,101.45,0,0,1,19.67-3.46,248.26,248.26,0,0,1,27.55-.48,111.13,111.13,0,0,1,28.2,3.9c16.06,4.65,28.1,14.25,35.89,29.08,1.16,2.22,2.25,4.49,3.23,6.81a117.29,117.29,0,0,1,7.22,25.81c2.68,15.56,3.39,31.26,3.35,47A280.39,280.39,0,0,1,1169.3,247c-1.27,12-3.38,23.79-7.75,35.09-1,2.64-2.17,5.25-3.43,7.79-7.62,15.31-19.69,25.37-36.06,30.31a105,105,0,0,1-22.58,3.94,238.24,238.24,0,0,1-34.11,0,99.91,99.91,0,0,1-24.46-4.43,55.06,55.06,0,0,1-30.63-24.38,85.37,85.37,0,0,1-9.6-23.93,167,167,0,0,1-4.06-24.54C995.63,236.84,995.27,226.8,995.08,216.73Zm48.6,1.42c.1,4.24.11,10.14.39,16a126.68,126.68,0,0,0,2.55,21.78,40.88,40.88,0,0,0,3.92,11.08,17,17,0,0,0,9.13,8.07,38.17,38.17,0,0,0,6.6,1.88,104.87,104.87,0,0,0,29.76.51,44.6,44.6,0,0,0,8-1.84,19,19,0,0,0,11.6-10,43.19,43.19,0,0,0,3.26-8.9,116.14,116.14,0,0,0,3.18-26q.33-15.08,0-30.15a143.15,143.15,0,0,0-2.52-24.42,52.41,52.41,0,0,0-4.24-13.38,17.24,17.24,0,0,0-12.46-9.73,55.53,55.53,0,0,0-9.41-1.25c-6.78-.19-13.56-.17-20.34,0a40.41,40.41,0,0,0-11.63,1.83,16.87,16.87,0,0,0-9.36,7.3,34.16,34.16,0,0,0-3.49,7.75c-2.23,6.9-3.18,14-3.87,21.23C1043.84,198.79,1043.79,207.64,1043.68,218.15Z" />
            <path class="cls-1" d="M922.62,215q34.62,54.15,68.87,107.64a5.06,5.06,0,0,1-.35.67.48.48,0,0,1-.29.1l-52.85.08h-3.07c-9.27-14.26-18.41-28.5-27.59-42.72L879.79,238.1a13.71,13.71,0,0,0-5.11-.06c-.1.73-.22,1.35-.25,2,0,1,0,2,0,3V322.7c-1,1.11-2,.78-3,.78-8.1,0-16.2,0-24.29,0H827a18.63,18.63,0,0,1-.35-2c0-.87,0-1.74,0-2.62q0-103.92,0-207.85a20.18,20.18,0,0,1,.19-4.29,9.41,9.41,0,0,1,1.36-.23h45.43a15.32,15.32,0,0,1,.38,1.94c.06,1,0,2,0,2.95q0,38.37,0,76.72c0,1.29.05,2.58.09,4a18.63,18.63,0,0,0,5.54.21c18.35-28.49,36.66-57.09,55-85.55,2.72-.4,53.42-.45,56.54-.08.4,1-.42,1.63-.86,2.31q-7.83,12.32-15.71,24.59l-50,78.16C924,212.75,923.37,213.78,922.62,215Z" />
            <path class="cls-1" d="M1491.82,105.94c.63-.07,1.15-.16,1.67-.18,8.86-.28,43.53-.1,46.42.26a16.23,16.23,0,0,1,.31,1.81c0,.87,0,1.74,0,2.62q0,58.35,0,116.71a205.68,205.68,0,0,1-2.53,33.62,104.57,104.57,0,0,1-8.5,28.47,61.65,61.65,0,0,1-12.12,17.4c-7.83,7.77-17.31,12.46-28,14.94a105.69,105.69,0,0,1-22.13,2.47c-8.2.15-16.41.17-24.62,0a96.4,96.4,0,0,1-24-3.08,52,52,0,0,1-31.84-24.13,82.15,82.15,0,0,1-8.88-22.12,159.71,159.71,0,0,1-4.13-26.19c-.68-8.18-.75-16.37-.75-24.56q0-56.71,0-113.43v-4.11c1.1-1,2.25-.67,3.3-.67,9.52,0,19,0,28.55,0,4.38,0,8.76,0,13.13,0,1,0,1.93.08,3.08.14.09.77.2,1.39.22,2,0,1.09,0,2.19,0,3.28q0,57,0,114.09a206.14,206.14,0,0,0,1.14,23.56,66,66,0,0,0,2.5,12.51c.43,1.35.91,2.68,1.45,4a16.94,16.94,0,0,0,13.3,10.94,80.65,80.65,0,0,0,10.74,1.25c4.47.22,9,.21,13.45,0a51.68,51.68,0,0,0,8.75-1.17,18.44,18.44,0,0,0,12.08-8.86,36.91,36.91,0,0,0,4-9.66,80.49,80.49,0,0,0,2.56-16.16c.35-5.45.55-10.91.55-16.37q.07-57.54,0-115.07A16.54,16.54,0,0,1,1491.82,105.94Z" />
            <path class="cls-1" d="M799.71,113.8c.5,3.53.44,37.64-.07,40.36a16.81,16.81,0,0,1-2.14.05c-11-1-22-1.58-33.08-1.93q-21-.67-42-1.3c-2.73-.08-5.47,0-8.2.12a26.58,26.58,0,0,0-4.52.71,6.6,6.6,0,0,0-5.22,4.9,18.55,18.55,0,0,0-.7,3.19,127.88,127.88,0,0,0,0,24.2,17.87,17.87,0,0,0,.64,2.86,5.34,5.34,0,0,0,4.32,4,33.51,33.51,0,0,0,5.18.75c2.51.15,5,.14,7.55.14,10.72,0,21.44,0,32.16,0a63.6,63.6,0,0,1,20,3.09,44.75,44.75,0,0,1,26.76,23.18,60.39,60.39,0,0,1,5.79,19,78.07,78.07,0,0,1,.87,10.11c.07,8.85.06,17.7-.18,26.54a57.84,57.84,0,0,1-3.45,17.62c-5.06,14.43-14.9,24.16-29.25,29.37a77.9,77.9,0,0,1-19.52,4.07,173,173,0,0,1-25.25.18c-8.19-.47-16.38-.86-24.55-1.59A231.41,231.41,0,0,1,663,316.27c-.51-.14-1-.38-1.62-.62-.44-3.39-.14-6.76-.19-10.12s0-6.77,0-10.16,0-6.55,0-9.83-.12-6.74.11-10.33c.81,0,1.43,0,2,0,4.57.41,9.14.88,13.72,1.25,4.8.38,9.59.77,14.4,1,16,.76,31.9,1.53,47.88,1.48a46.21,46.21,0,0,0,11.06-1.17c.74-.19,1.47-.42,2.2-.66,3.8-1.31,6.12-3.92,6.23-8,.19-7,.53-14-.3-20.94a14,14,0,0,0-.87-3.48,6.15,6.15,0,0,0-4.23-3.79,19.91,19.91,0,0,0-5.85-.64c-10.94,0-21.88,0-32.82,0A93.81,93.81,0,0,1,698.06,239a62.07,62.07,0,0,1-12.9-3.66c-13.87-5.7-22.73-15.91-27.1-30.11a63.8,63.8,0,0,1-2.79-16.1c-.45-11-.52-22.06,0-33.09a62.49,62.49,0,0,1,3.57-17.93c5.3-15,15.73-24.62,30.69-29.57a76.89,76.89,0,0,1,16.66-3.4,185.69,185.69,0,0,1,29.83-.14c6.87.44,13.75.89,20.6,1.59,13.71,1.4,27.39,3,40.76,6.52C798.14,113.28,798.86,113.54,799.71,113.8Z" />
            <path class="cls-1" d="M170.53,331.38a7.83,7.83,0,0,1,7.79,8,7.89,7.89,0,0,1-15.77-.19A7.82,7.82,0,0,1,170.53,331.38Z" />
            <path class="cls-1" d="M84.12,173.91a7.88,7.88,0,1,1-8-7.78A7.75,7.75,0,0,1,84.12,173.91Z" />
            <path class="cls-1" d="M116.21,281.35a7.87,7.87,0,0,1-15.74.43,7.87,7.87,0,1,1,15.74-.43Z" />
            <path class="cls-1" d="M34.88,220a7.7,7.7,0,0,1-7.79,8,7.77,7.77,0,0,1-7.95-7.83A7.87,7.87,0,0,1,34.88,220Z" />
            <path class="cls-1" d="M6.54,214a6.13,6.13,0,0,1,6.35,6.13,6.31,6.31,0,0,1-6.16,6.38c-3.37.07-6.8-3.17-6.73-6.35S3.24,214,6.54,214Z" />
            <path class="cls-1" d="M143.76,339.09A6.19,6.19,0,0,1,150,332.9a6.33,6.33,0,0,1,6.25,6.58,6.24,6.24,0,0,1-6.48,6A6.15,6.15,0,0,1,143.76,339.09Z" />
        </g>
    </g>
</svg>